<?xml version="1.0" encoding="UTF-8"?>
<svg version="1.1" xmlns="http://www.w3.org/2000/svg" width="447" height="224">
<path d="M0 0 C1.29400223 0.0028299 2.58800446 0.00565979 3.92121887 0.00857544 C7.32256128 0.01612654 10.72372648 0.03569905 14.125 0.0579834 C17.61130332 0.07862814 21.09763678 0.087727 24.58398438 0.09765625 C31.39598863 0.11788792 38.2075095 0.15705466 45.01953125 0.1953125 C45.01953125 9.4353125 45.01953125 18.6753125 45.01953125 28.1953125 C27.52953125 28.5253125 10.03953125 28.8553125 -7.98046875 29.1953125 C-8.65128914 37.22634971 -8.65128914 37.22634971 -6.98046875 40.1953125 C-6.03840576 40.21513184 -5.09634277 40.23495117 -4.12573242 40.25537109 C-0.5787915 40.33418716 2.9677844 40.42089779 6.5144043 40.51269531 C8.03972125 40.55061534 9.56511645 40.58552733 11.09057617 40.6171875 C39.02821588 41.20399713 39.02821588 41.20399713 47.83203125 50.0078125 C53.68017538 58.52939394 54.21859104 66.40489853 54.26953125 76.3828125 C54.29015625 77.37345703 54.31078125 78.36410156 54.33203125 79.38476562 C54.37767421 88.08545466 53.09034364 96.61319657 47.609375 103.66015625 C41.04767242 109.99614916 33.69920498 111.34944381 24.93359375 111.36328125 C24.13180695 111.36738007 23.33002014 111.37147888 22.50393677 111.3757019 C19.88409193 111.3853021 17.26439122 111.38522232 14.64453125 111.3828125 C13.30944519 111.38340164 13.30944519 111.38340164 11.9473877 111.38400269 C-28.31075149 111.36274181 -28.31075149 111.36274181 -40.98046875 108.1953125 C-40.98046875 99.6153125 -40.98046875 91.0353125 -40.98046875 82.1953125 C-30.0243906 82.11103498 -19.16567194 82.27314055 -8.22558594 82.83740234 C0.85938844 83.28375529 9.92608114 83.28981718 19.01953125 83.1953125 C20.30400044 80.62637412 20.34930269 78.42954913 20.58203125 75.5703125 C20.66582031 74.56742187 20.74960937 73.56453125 20.8359375 72.53125 C20.92681641 71.37496094 20.92681641 71.37496094 21.01953125 70.1953125 C19.83512451 70.21625977 18.65071777 70.23720703 17.43041992 70.25878906 C12.98930194 70.3317992 8.54823576 70.37733173 4.10668945 70.41503906 C2.19318691 70.43501669 0.27974433 70.46220849 -1.63354492 70.49707031 C-25.97021812 70.92904467 -25.97021812 70.92904467 -34.91796875 63.1328125 C-41.76839275 55.41679308 -42.6260732 45.58428153 -42.48046875 35.6953125 C-42.4959375 34.64472656 -42.51140625 33.59414062 -42.52734375 32.51171875 C-42.48516101 23.98025959 -40.62537432 16.70144791 -36.29296875 9.3203125 C-26.02329178 -0.11668796 -13.2507545 -0.11086416 0 0 Z " fill="#FFFFFF" transform="translate(357.98046875,57.8046875)"/>
<path d="M0 0 C17.015625 -0.061875 17.015625 -0.061875 34.375 -0.125 C37.93845215 -0.14320801 41.5019043 -0.16141602 45.17333984 -0.18017578 C49.5715332 -0.18920898 49.5715332 -0.18920898 51.63955688 -0.19088745 C53.06413019 -0.19393074 54.48869881 -0.20090604 55.91323853 -0.21115112 C80.99849537 -0.38232395 80.99849537 -0.38232395 89.72265625 7.5703125 C98.45873738 17.14351197 98.18138489 28.05170649 98.1875 40.3125 C98.19974609 41.59318359 98.21199219 42.87386719 98.22460938 44.19335938 C98.24092685 54.76164308 97.70976267 63.50592371 91 72 C83.63018886 79.36981114 74.91664059 80.98676153 64.78710938 81.11352539 C63.30598015 81.11337004 61.82484381 81.10790109 60.34375 81.09765625 C59.55601196 81.0962413 58.76827393 81.09482635 57.95666504 81.09336853 C55.47106936 81.08782612 52.98556789 81.07528485 50.5 81.0625 C48.80208465 81.05747754 47.10416786 81.05291595 45.40625 81.04882812 C41.27076892 81.03873174 37.13548839 81.01914578 33 81 C33 90.57 33 100.14 33 110 C22.11 110 11.22 110 0 110 C0 73.7 0 37.4 0 0 Z M33 28 C33 36.25 33 44.5 33 53 C37.09360308 53.04588098 41.1865522 53.08571438 45.28027344 53.10986328 C46.67320781 53.11992877 48.06612102 53.13358234 49.45898438 53.15087891 C51.4595436 53.1751022 53.46025615 53.18540814 55.4609375 53.1953125 C56.66540527 53.20578613 57.86987305 53.21625977 59.11083984 53.22705078 C62.12841495 53.30460814 62.12841495 53.30460814 64 51 C64.31019696 48.80397205 64.31019696 48.80397205 64.265625 46.28125 C64.26820313 45.34925781 64.27078125 44.41726562 64.2734375 43.45703125 C64.26570313 42.48121094 64.25796875 41.50539063 64.25 40.5 C64.25773437 39.52417969 64.26546875 38.54835938 64.2734375 37.54296875 C64.27085937 36.61097656 64.26828125 35.67898437 64.265625 34.71875 C64.26336914 33.86216797 64.26111328 33.00558594 64.25878906 32.12304688 C64.19501572 29.78411453 64.19501572 29.78411453 62 28 C58.98736275 27.72108853 58.98736275 27.72108853 55.4609375 27.8046875 C54.15898437 27.81113281 52.85703125 27.81757812 51.515625 27.82421875 C50.13541405 27.84093071 48.75520571 27.85786061 47.375 27.875 C45.98698548 27.88502994 44.59896411 27.89415577 43.2109375 27.90234375 C39.80721808 27.92598069 36.40358772 27.96185269 33 28 Z " fill="#FFFFFF" transform="translate(216,58)"/>
<path d="M0 0 C1.35762988 0.00186785 2.71526044 0.00329002 4.07289124 0.00428772 C7.62547709 0.00808403 11.17802129 0.01788929 14.73059082 0.0289917 C18.36400784 0.03926824 21.99743187 0.04385366 25.63085938 0.04882812 C32.74482831 0.05898223 39.85868324 0.07856118 46.97265625 0.09765625 C46.97265625 9.33765625 46.97265625 18.57765625 46.97265625 28.09765625 C41.25115234 28.18853516 41.25115234 28.18853516 35.4140625 28.28125 C31.73720196 28.34298247 28.06037397 28.40639373 24.38354492 28.4699707 C21.81977204 28.51339691 19.25596879 28.5550661 16.69213867 28.5949707 C13.01601997 28.65248772 9.34005526 28.71623488 5.6640625 28.78125 C4.50991348 28.79796249 3.35576447 28.81467499 2.16664124 28.83189392 C1.10561691 28.85183914 0.04459259 28.87178436 -1.04858398 28.89233398 C-1.98790268 28.90787827 -2.92722137 28.92342255 -3.89500427 28.93943787 C-6.0104104 28.86310784 -6.0104104 28.86310784 -7.02734375 30.09765625 C-7.15025093 31.75409991 -7.20518283 33.41564618 -7.23266602 35.07641602 C-7.25261124 36.13744034 -7.27255646 37.19846466 -7.29310608 38.29164124 C-7.30981857 39.44579025 -7.32653107 40.59993927 -7.34375 41.7890625 C-7.3645311 42.96403793 -7.38531219 44.13901337 -7.40672302 45.34959412 C-7.47234499 49.11971949 -7.53116205 52.88991707 -7.58984375 56.66015625 C-7.63301695 59.20899198 -7.67663083 61.75782028 -7.72070312 64.30664062 C-7.8280392 70.57023517 -7.92978165 76.83390226 -8.02734375 83.09765625 C-4.89714055 83.1124294 -1.76694657 83.12114581 1.36328125 83.12890625 C2.67159912 83.13519043 2.67159912 83.13519043 4.00634766 83.14160156 C9.92852097 83.1525584 15.81195891 82.95887752 21.72265625 82.59765625 C30.15929943 82.09360944 38.51995794 82.02010856 46.97265625 82.09765625 C46.97265625 90.67765625 46.97265625 99.25765625 46.97265625 108.09765625 C44.64203125 108.40703125 42.31140625 108.71640625 39.91015625 109.03515625 C38.86202759 109.17812134 38.86202759 109.17812134 37.79272461 109.32397461 C25.2755782 110.93329847 12.67088287 111.3280994 0.06445312 111.39282227 C-1.50399736 111.40443194 -3.07240567 111.42502259 -4.640625 111.4543457 C-15.57366438 111.65718713 -26.15376761 111.63824227 -34.96484375 104.16015625 C-42.35972217 95.53748414 -42.61353242 83.59906455 -42.48828125 72.80078125 C-42.48736481 71.48656189 -42.48644836 70.17234253 -42.48550415 68.81829834 C-42.48240742 66.06174925 -42.46608219 63.30573184 -42.43896484 60.54931641 C-42.40485476 57.04057349 -42.39734211 53.53240702 -42.39885521 50.02351761 C-42.39817702 46.63669685 -42.3804861 43.25005995 -42.36328125 39.86328125 C-42.3610556 38.61621399 -42.35882996 37.36914673 -42.35653687 36.08428955 C-42.22828882 24.23789476 -40.82867822 14.89899072 -32.21484375 6.28515625 C-22.32296359 -0.50338896 -11.59098215 -0.04608356 0 0 Z " fill="#FFFFFF" transform="translate(74.02734375,57.90234375)"/>
<path d="M0 0 C10.89 0 21.78 0 33 0 C33 27.06 33 54.12 33 82 C50.82 82 68.64 82 87 82 C87 91.24 87 100.48 87 110 C58.29 110 29.58 110 0 110 C0 73.7 0 37.4 0 0 Z " fill="#FFFFFF" transform="translate(126,58)"/>
</svg>
